<?xml version="1.0" encoding="utf-8"?>
<!-- Generator: Adobe Illustrator 23.0.2, SVG Export Plug-In . SVG Version: 6.00 Build 0)  -->
<svg version="1.1" id="Layer_1" xmlns="http://www.w3.org/2000/svg" xmlns:xlink="http://www.w3.org/1999/xlink" x="0px" y="0px"
	 viewBox="0 0 150 150" style="enable-background:new 0 0 150 150;" xml:space="preserve">
<style type="text/css">
	.st0{fill:#FFC107;}
	.st1{fill:#FFA000;}
	.st2{fill:#FFD54F;}
</style>
<path class="st0" d="M137.52,37.49c-6.9,0-12.5,5.6-12.5,12.5c0,1.31,0.21,2.61,0.62,3.86L115.5,60.3
	c-6.68,4.25-15.48,2.84-20.49-3.28l-9.94-12.16c1.58-2.13,2.44-4.71,2.44-7.36c0-6.9-5.6-12.5-12.5-12.5c-6.9,0-12.5,5.6-12.5,12.5
	c0,2.65,0.86,5.23,2.44,7.36l-9.94,12.16c-5.01,6.12-13.81,7.53-20.48,3.28l-10.14-6.44C24.79,52.61,25,51.31,25,50
	c0-6.9-5.6-12.5-12.5-12.5c-6.9,0-12.5,5.6-12.5,12.5c0,6.48,4.95,11.89,11.41,12.46l7.39,44.32c0.25,1.51,1.55,2.61,3.08,2.61
	h106.27c1.53,0,2.83-1.11,3.08-2.61l7.39-44.32c6.88-0.62,11.95-6.69,11.34-13.57C149.37,42.44,143.98,37.51,137.52,37.49z"/>
<ellipse class="st1" cx="75.01" cy="106.25" rx="53.13" ry="15.63"/>
<path class="st2" d="M75.01,125.01c-27.96,0-56.26-6.44-56.26-18.75S47.05,87.5,75.01,87.5s56.26,6.44,56.26,18.75
	S102.97,125.01,75.01,125.01z M75.01,93.75c-32.83,0-50.01,8.13-50.01,12.5s17.18,12.5,50.01,12.5s50.01-8.13,50.01-12.5
	S107.84,93.75,75.01,93.75z"/>
</svg>
