<?xml version="1.0" encoding="utf-8"?>
<!-- Generator: Adobe Illustrator 23.0.2, SVG Export Plug-In . SVG Version: 6.00 Build 0)  -->
<svg version="1.1" id="Layer_1" xmlns="http://www.w3.org/2000/svg" xmlns:xlink="http://www.w3.org/1999/xlink" x="0px" y="0px"
	 viewBox="0 0 512 512" style="enable-background:new 0 0 512 512;" xml:space="preserve">
<style type="text/css">
	.st0{fill:#D12424;}
</style>
<path class="st0" d="M256,483.5c-7.3,0-14.3-2.6-19.8-7.4C215.5,458,195.6,441,178,426l-0.1-0.1C126.3,382,81.8,344,50.8,306.6
	C16.1,264.8,0,225.2,0,181.9C0,139.8,14.4,101,40.6,72.6C67.1,43.8,103.5,28,143,28c29.6,0,56.6,9.3,80.4,27.8
	c12,9.3,22.9,20.7,32.5,34c9.6-13.3,20.5-24.7,32.5-34c24-18.5,51-27.8,80.6-27.8c39.5,0,75.9,15.8,102.4,44.6
	C497.6,101,512,139.8,512,181.9c0,43.3-16.1,82.9-50.8,124.7c-31,37.4-75.5,75.4-127.1,119.3c-17.6,15-37.6,32-58.3,50.2
	C270.3,480.9,263.3,483.5,256,483.5z M25.8,127c-31.1,0,57.7-56.6,36.9-34.1c-21.1,22.9-32.7,54.4-32.7,89
	c0,36.4,13.5,69,43.9,105.6c29.3,35.4,73,72.6,123.5,115.6l0.1,0.1c17.7,15.1,37.7,32.1,58.5,50.3c21-18.3,41-35.3,58.7-50.4
	c50.5-43.1,94.1-80.2,123.5-115.6c30.3-36.6,43.9-69.2,43.9-105.6c0-34.5-11.6-66.1-32.7-89C428.6,70.4,502.1,94,471,94
	c-22.8,0,51.4,40.7,33,55c-16.4,12.7-32.3,107.8-39,119c-3.5,5.8-202.3,195-209,195S31.9,255.8,28.5,250c-6.7-11.3,15.3-78.3-1.2-91
	C8.8,144.7,48.5,127,25.8,127z M91,198.5c0,24-16.1,43.5-35.9,43.5s-35.9-19.5-35.9-43.5S35.2,155,55.1,155S91,174.5,91,198.5z"/>
<rect x="19.1" y="160" width="20.9" height="54"/>
</svg>
