<?xml version="1.0" encoding="utf-8"?>
<!-- Generator: Adobe Illustrator 23.0.2, SVG Export Plug-In . SVG Version: 6.00 Build 0)  -->
<svg version="1.1" xmlns="http://www.w3.org/2000/svg" xmlns:xlink="http://www.w3.org/1999/xlink" x="0px" y="0px"
	 viewBox="0 0 150 150" style="enable-background:new 0 0 150 150;" xml:space="preserve">
<style type="text/css">
	.st0{fill:#EFEFEF;}
	.st1{fill:#7A7A7A;}
</style>
<g id="Layer_2">
	<circle class="st0" cx="75.1" cy="75" r="75"/>
</g>
<g id="Layer_1">
	<path id="profile_3_" class="st1" d="M94.6,74.3c6.4-5.2,10.6-13.2,10.6-22.2c0-15.7-12.8-28.4-28.4-28.4S48.4,36.4,48.4,52.1
		c0,9,4.2,16.9,10.6,22.2c-17.3,6.5-29.5,22.5-29.5,44.1h87c0-23.7-25.1-2.8-4.2-2.8s2.5-20.9,2.5,2.8h9.5
		C124.2,96.8,111.9,80.8,94.6,74.3z M65.9,35.1C54,35.1,60,72.6,60,60.6s4,27.3,16,27.3s8.9-35.2,8.9-23.2S77.9,35.1,65.9,35.1z"/>
</g>
</svg>
