<?xml version="1.0" encoding="utf-8"?>
<!-- Generator: Adobe Illustrator 23.0.2, SVG Export Plug-In . SVG Version: 6.00 Build 0)  -->
<svg version="1.1" id="Layer_1" xmlns="http://www.w3.org/2000/svg" xmlns:xlink="http://www.w3.org/1999/xlink" x="0px" y="0px"
	 viewBox="0 0 150 150" style="enable-background:new 0 0 150 150;" xml:space="preserve">
<g>
	<g>
		<g>
			<path d="M107.55,32.22L90.63,15.29c-8.37-8.36-22.92-8.35-31.27,0.02L2.52,72.15c-3.36,3.36-3.36,8.8,0,12.16
				c3.36,3.36,8.81,3.36,12.16,0l56.84-56.84c1.85-1.84,5.11-1.84,6.96-0.01l56.85,56.85c1.69,1.68,3.88,2.52,6.08,2.52
				c2.2,0,4.4-0.84,6.08-2.52c3.36-3.36,3.36-8.8,0-12.16l-22.73-22.73"/>
			<path d="M77.99,32.65c-1.65-1.65-4.33-1.65-5.97,0l-50,49.98c-0.79,0.79-1.24,1.87-1.24,2.99v36.46
				c0,8.55,6.94,15.49,15.49,15.49h24.75V99.24h27.95v38.34h24.75c8.55,0,15.49-6.94,15.49-15.49V85.63c0-1.12-0.44-2.2-1.24-2.99
				L77.99,32.65z"/>
		</g>
	</g>
</g>
</svg>
