<?xml version="1.0" encoding="utf-8"?>
<!-- Generator: Adobe Illustrator 23.0.2, SVG Export Plug-In . SVG Version: 6.00 Build 0)  -->
<svg version="1.1" id="Layer_1" xmlns="http://www.w3.org/2000/svg" xmlns:xlink="http://www.w3.org/1999/xlink" x="0px" y="0px"
	 viewBox="0 0 150 150" style="enable-background:new 0 0 150 150;" xml:space="preserve">
<g>
	<g>
		<path d="M128.03,21.97C113.87,7.8,95.03,0,75,0S36.13,7.8,21.97,21.97C7.8,36.13,0,54.97,0,75s7.8,38.87,21.97,53.03
			C36.13,142.2,54.97,150,75,150s38.87-7.8,53.03-21.97C142.2,113.87,150,95.03,150,75S142.2,36.13,128.03,21.97z M75,141.07
			c-36.43,0-66.07-29.64-66.07-66.07S38.57,8.93,75,8.93S141.07,38.57,141.07,75S111.43,141.07,75,141.07z"/>
	</g>
</g>
<g>
	<g>
		<path d="M58.78,55.19c-7.31-7.31-19.21-7.31-26.52,0c-1.74,1.74-1.74,4.57,0,6.31c1.74,1.74,4.57,1.74,6.31,0
			c3.83-3.83,10.06-3.83,13.89,0c0.87,0.87,2.01,1.31,3.16,1.31c1.14,0,2.29-0.44,3.16-1.31C60.52,59.76,60.52,56.94,58.78,55.19z"
			/>
	</g>
</g>
<g>
	<g>
		<path d="M117.74,55.19c-7.31-7.31-19.21-7.31-26.52,0c-1.74,1.74-1.74,4.57,0,6.31c1.74,1.74,4.57,1.74,6.31,0
			c3.83-3.83,10.06-3.83,13.89,0c0.87,0.87,2.01,1.31,3.16,1.31c1.14,0,2.29-0.44,3.16-1.31C119.48,59.76,119.48,56.94,117.74,55.19
			z"/>
	</g>
</g>
<g>
	<g>
		<path d="M114.58,78.27H35.42c-2.47,0-4.46,2-4.46,4.46c0,24.29,19.76,44.05,44.05,44.05s44.05-19.76,44.05-44.05
			C119.05,80.27,117.05,78.27,114.58,78.27z M75,117.86c-17.85,0-32.64-13.39-34.84-30.65h69.67
			C107.64,104.47,92.85,117.86,75,117.86z"/>
	</g>
</g>
</svg>
