<?xml version="1.0" encoding="utf-8"?>
<!-- Generator: Adobe Illustrator 23.0.2, SVG Export Plug-In . SVG Version: 6.00 Build 0)  -->
<svg version="1.1" id="Layer_1" xmlns="http://www.w3.org/2000/svg" xmlns:xlink="http://www.w3.org/1999/xlink" x="0px" y="0px"
	 viewBox="0 0 150 150" style="enable-background:new 0 0 150 150;" xml:space="preserve">
<path id="profile_3_" d="M103.19,80.05C113.43,71.8,120,59.18,120,45c0-24.85-20.15-45-45-45S30,20.15,30,45
	c0,14.18,6.57,26.8,16.81,35.05C19.37,90.36,0,115.84,0,150h15c0-37.5,26.92-60,60-60s60,22.5,60,60h15
	C150,115.84,130.63,90.36,103.19,80.05z M75,75c-16.54,0-30-13.46-30-30s13.46-30,30-30s30,13.46,30,30S91.54,75,75,75z"/>
</svg>
