<?xml version="1.0" encoding="utf-8"?>
<!-- Generator: Adobe Illustrator 23.0.2, SVG Export Plug-In . SVG Version: 6.00 Build 0)  -->
<svg version="1.1" id="Layer_1" xmlns="http://www.w3.org/2000/svg" xmlns:xlink="http://www.w3.org/1999/xlink" x="0px" y="0px"
	 viewBox="0 0 150 150" style="enable-background:new 0 0 150 150;" xml:space="preserve">
<style type="text/css">
	.st0{fill-rule:evenodd;clip-rule:evenodd;}
</style>
<g id="Icon_Magnifying_Glass_3_">
	<g>
		<path class="st0" d="M100.22,91.38c7.7-9.63,12.33-21.82,12.33-35.1C112.55,25.2,87.36,0,56.28,0C25.2,0,0,25.2,0,56.28
			c0,31.08,25.2,56.28,56.28,56.28c13.29,0,25.48-4.63,35.1-12.33L141.16,150l8.84-8.84L100.22,91.38z M56.28,100.05
			c-24.17,0-43.77-19.6-43.77-43.77c0-24.17,19.6-43.77,43.77-43.77c24.17,0,43.77,19.6,43.77,43.77
			C100.05,80.45,80.45,100.05,56.28,100.05z"/>
	</g>
</g>
</svg>
