<?xml version="1.0" encoding="utf-8"?>
<!-- Generator: Adobe Illustrator 23.0.2, SVG Export Plug-In . SVG Version: 6.00 Build 0)  -->
<svg version="1.1" id="Layer_1" xmlns="http://www.w3.org/2000/svg" xmlns:xlink="http://www.w3.org/1999/xlink" x="0px" y="0px"
	 viewBox="0 0 150 150" style="enable-background:new 0 0 150 150;" xml:space="preserve">
<path d="M150,87.5v-25l-18.58-2.06c-1.38-5.35-3.48-10.4-6.23-15.04l11.67-14.59l-17.68-17.68L104.61,24.8
	c-4.65-2.75-9.69-4.85-15.05-6.23L87.5,0h-25l-2.07,18.57c-5.36,1.38-10.4,3.48-15.04,6.23L30.8,13.13L13.12,30.81L24.8,45.39
	c-2.74,4.64-4.84,9.69-6.23,15.04L0,62.5v25l18.57,2.06c1.38,5.35,3.48,10.4,6.23,15.04l-11.68,14.59l17.68,17.68l14.59-11.67
	c4.64,2.74,9.68,4.85,15.04,6.23L62.5,150h25l2.06-18.58c5.36-1.38,10.4-3.48,15.04-6.23l14.59,11.67l17.68-17.68L125.2,104.6
	c2.75-4.64,4.85-9.68,6.23-15.04L150,87.5z M75,95.83c-11.51,0-20.83-9.34-20.83-20.83c0-11.51,9.33-20.83,20.83-20.83
	c11.49,0,20.83,9.33,20.83,20.83C95.83,86.5,86.49,95.83,75,95.83z"/>
</svg>
