<?xml version="1.0" encoding="utf-8"?>
<!-- Generator: Adobe Illustrator 23.0.2, SVG Export Plug-In . SVG Version: 6.00 Build 0)  -->
<svg version="1.1" id="Layer_1" xmlns="http://www.w3.org/2000/svg" xmlns:xlink="http://www.w3.org/1999/xlink" x="0px" y="0px"
	 viewBox="0 0 512 512" style="enable-background:new 0 0 512 512;" xml:space="preserve">
<path d="M511.8,255.9L278.5,0v153.3h-27.1c-67.1,0-130.3,26.1-177.8,73.6S0,337.5,0,404.7V512l44.8-49.1
	c59.9-65.6,144.9-103.6,233.7-104.5v153.3L511.8,255.9z M107,394l32-31c0-59.1-21.8-21.2,20-63s49.4-13.2,108.6-13.2l40.9-103.6
	V77.4L264,274l44.5,160.3V328.5L169.2,241C74.5,241,172.8,326.2,107,394z"/>
<rect x="219" y="256" width="96" height="96"/>
</svg>
