<?xml version="1.0" encoding="utf-8"?>
<!-- Generator: Adobe Illustrator 23.0.2, SVG Export Plug-In . SVG Version: 6.00 Build 0)  -->
<svg version="1.1" id="Capa_1" xmlns="http://www.w3.org/2000/svg" xmlns:xlink="http://www.w3.org/1999/xlink" x="0px" y="0px"
	 viewBox="0 0 512 512" style="enable-background:new 0 0 512 512;" xml:space="preserve">
<g>
	<g>
		<path d="M467.8,431.9l-36.7-61.1c-16.9-28.2-25.8-60.4-25.8-93.3V224c0-82.3-67-149.3-149.3-149.3s-149.3,67-149.3,149.3v53.5
			c0,32.9-8.9,65.1-25.8,93.3l-36.7,61.1c-2,3.3-2,7.4-0.1,10.7c1.9,3.3,5.5,5.4,9.3,5.4h405.3c3.8,0,7.4-2.1,9.3-5.4
			C469.8,439.3,469.8,435.1,467.8,431.9z M241.6,287.6l20.7,82.7c18.9-31.5,32.9,42.1,32.9,5.4l45.2,64.3c7.5-68.7-35.6,2.2,26,0
			C437,437.4,384,153.4,384,224v53.5c0,36.7-66.3,82.8-47.4,114.2l82.3-28l-142.8-6.5L241.6,287.6z"/>
	</g>
</g>
<g>
	<g>
		<path d="M256.4-0.2c-23.5,0-42.7,19.1-42.7,42.7v42.7c0,5.9,4.8,10.7,10.7,10.7s10.7-4.8,10.7-10.7l28.7-2.1
			c0-11.8-19.6,0.6-7.8,0.6c11.8,0-6.7-15.4-6.7-3.6l28.5,5.2c0,5.9,4.8,10.7,10.7,10.7s10.7-4.8,10.7-10.7V42.5
			C299.1,19,279.9-0.2,256.4-0.2z"/>
	</g>
</g>
<g>
	<g>
		<path d="M302.2,431.9c-3-5.1-9.5-6.7-14.6-3.8c-5.1,3-6.8,9.5-3.8,14.6c2.8,4.7-8.4-21.6-8.4-16.1c0,17.6-1.3,4.1-18.9,4.1
			s-8.7,5.4-8.7-12.3c0-5.6-22.2,28.9-19.4,24.2c3-5.1,1.3-11.6-3.8-14.6c-5.1-2.9-11.6-1.3-14.6,3.8c-4.7,8.1-7.2,17.3-7.2,26.7
			c0,29.4,23.9,53.3,53.3,53.3s53.3-23.9,53.4-53.3C309.4,449.2,306.9,440,302.2,431.9z"/>
	</g>
</g>
</svg>
