<?xml version="1.0" encoding="utf-8"?>
<!-- Generator: Adobe Illustrator 23.0.2, SVG Export Plug-In . SVG Version: 6.00 Build 0)  -->
<svg version="1.1" id="Layer_1" xmlns="http://www.w3.org/2000/svg" xmlns:xlink="http://www.w3.org/1999/xlink" x="0px" y="0px"
	 viewBox="0 0 150 150" style="enable-background:new 0 0 150 150;" xml:space="preserve">
<path id="profile_3_" d="M103.2,80.1C113.4,71.8,120,59.2,120,45c0-24.9-20.2-45-45-45S30,20.1,30,45c0,14.2,6.6,26.8,16.8,35.1
	C19.4,90.4,0,115.8,0,150h137.8c0-37.5-39.7-4.4-6.6-4.4s3.9-33.1,3.9,4.4h15C150,115.8,130.6,90.4,103.2,80.1z M64.8,6.7
	c-16.5,0-8.2,51.9-8.2,35.3s5.6,37.7,22.1,37.7S91,31,91,47.6S81.3,6.7,64.8,6.7z"/>
</svg>
