<?xml version="1.0" encoding="utf-8"?>
<!-- Generator: Adobe Illustrator 23.0.2, SVG Export Plug-In . SVG Version: 6.00 Build 0)  -->
<svg version="1.1" id="Layer_1" xmlns="http://www.w3.org/2000/svg" xmlns:xlink="http://www.w3.org/1999/xlink" x="0px" y="0px"
	 viewBox="0 0 150 150" style="enable-background:new 0 0 150 150;" xml:space="preserve">
<style type="text/css">
	.st0{fill-rule:evenodd;clip-rule:evenodd;}
</style>
<g id="Icon_Magnifying_Glass_3_">
	<g>
		<path class="st0" d="M100.2,91.4c7.7-9.6,12.3-21.8,12.3-35.1C112.6,25.2,87.4,0,56.3,0S0,25.2,0,56.3s25.2,56.3,56.3,56.3
			c13.3,0,25.5-4.6,35.1-12.3l49.8,49.8l8.8-8.8L100.2,91.4z M58,51.7c-24.2,0,5.4,34.2,5.4,10.1s-32.7,10-8.5,10s-8.7-32.5-8.7-8.3
			S82.1,51.7,58,51.7z"/>
	</g>
</g>
<rect x="42.5" y="47.9" class="st0" width="31.7" height="28.9"/>
</svg>
